<?xml version="1.0" encoding="utf-8"?>
<!-- Generator: Adobe Illustrator 24.1.0, SVG Export Plug-In . SVG Version: 6.00 Build 0)  -->
<svg version="1.1" id="Layer_1" xmlns="http://www.w3.org/2000/svg" xmlns:xlink="http://www.w3.org/1999/xlink" x="0px" y="0px"
	 viewBox="0 0 300 150" style="enable-background:new 0 0 300 150;" xml:space="preserve">
<style type="text/css">
	.st0{fill:none;stroke:#FFE81F;stroke-miterlimit:10;}
</style>
<g>
	<path class="st0" d="M121.72,63.04H105.2V44.76H91.91v18.28H75.39V27.4H64.84V12.28h27.07v17.51h13.29V12.28h16.52 M121.72,27.4
		v32.22"/>
	<path class="st0" d="M121.72,58.76l10.3-31.37h-10.76 M121.72,12.28h40.5l16.98,50.77h-19.2l-3.2-9.14h-15.08l-3.2,9.14h-16.8
		 M149.67,23.53l-7.28,20.11h13.99L149.67,23.53z"/>
	<path class="st0" d="M211.76,41.53l-5.34,21.52h-16.52L178.22,27.4h-10.55V12.28h23.27l6.96,21.94l6.05-21.94h15.19l7.07,21.94
		l4.71-21.94h16.35l-12.55,50.77h-16.52L211.76,41.53z"/>
	<path class="st0" d="M97,100.39l-8.81,35.65H71.66l-6.43-21.52l-5.34,21.52H43.36l-11.67-35.65H21.14V85.28h23.27l6.96,21.94
		l6.05-21.94h15.19l7.07,21.94l4.71-21.94h16.35"/>
	<path class="st0" d="M100.73,85.28h31.5l16.98,50.77h-19.2l-3.2-9.14h-15.08l-3.2,9.14H90.33l11.71-35.65h-5.47 M89.63,85.28h11.11
		 M119.68,96.53l-7.28,20.11h13.99L119.68,96.53z"/>
	<path class="st0" d="M186.04,100.39 M186.45,100.39h-12.97v35.65h-16.52v-35.65h-16.1V85.28h48.73v9.54"/>
	<path class="st0" d="M189.47,94.58c0.97-1.18,2.11-2.17,3.32-3.13c2.64-2.07,5.3-3.74,8-4.99c2.69-1.25,6.67-2.02,11.92-2.3
		c5.44,0.28,9.58,0.94,12.45,1.97 M226.23,100.17l-2.42,2.69c-1.69-1.41-3.19-2.41-4.5-3.02c-1.31-0.61-3.47-1.01-6.47-1.2
		c-2.91,0.38-5.08,0.97-6.5,1.79c-1.43,0.82-2.66,1.93-3.69,3.34c-1.03,1.41-1.64,3.52-1.83,6.33c0.19,2.81,0.8,4.92,1.83,6.33
		c1.03,1.41,2.26,2.52,3.69,3.34c1.43,0.82,3.6,1.42,6.5,1.79c3-0.19,5.16-0.59,6.47-1.2c1.31-0.61,2.81-1.62,4.5-3.02l9.98,11.11
		c-2.91,2.72-5.79,4.59-8.65,5.63c-2.86,1.03-7.01,1.69-12.45,1.97c-5.25-0.28-9.22-1.05-11.92-2.3c-2.7-1.25-5.36-2.92-8-4.99
		s-4.7-4.68-6.19-7.8c-1.49-3.13-2.23-6.76-2.23-10.88c0-3.53,0.56-6.71,1.67-9.53 M225.15,86.12"/>
	<path class="st0" d="M224.65,86.01l0.85-0.73h27.07v17.51h13.29V85.28h16.52v50.77h-16.52v-18.28h-13.29v18.28h-16.52v-35.65
		h-10.02"/>
</g>
</svg>
