<?xml version="1.0" encoding="utf-8"?>
<!-- Generator: Adobe Illustrator 24.1.0, SVG Export Plug-In . SVG Version: 6.00 Build 0)  -->
<svg version="1.1" id="Layer_1" xmlns="http://www.w3.org/2000/svg" xmlns:xlink="http://www.w3.org/1999/xlink" x="0px" y="0px"
	 viewBox="0 0 266.87 128.74" style="enable-background:new 0 0 266.87 128.74;" xml:space="preserve">
<style type="text/css">
	.st0{fill:none;stroke:#FFE81F;stroke-width:3;stroke-miterlimit:10;}
</style>
<g>
	<path class="st0" d="M103.81,53.61H87.29V35.33H74v18.28H57.47V17.96H46.93V2.84H74v17.51h13.29V2.84h16.52 M103.81,17.96v32.22"/>
	<path class="st0" d="M103.81,49.33l10.3-31.37l-11.85,0 M103.81,2.84h40.5l16.98,50.77h-19.2l-3.2-9.14h-15.08l-3.2,9.14h-16.8
		 M131.76,14.09l-7.28,20.11h13.99L131.76,14.09z"/>
	<path class="st0" d="M193.84,32.09l-5.34,21.52h-16.52l-11.67-35.65h-10.55V2.84h23.27l6.96,21.94l6.05-21.94h15.19l7.07,21.94
		L213,2.84h16.35L216.8,53.61h-16.52L193.84,32.09z"/>
	<path class="st0" d="M79.08,90.96l-8.81,35.65H53.75l-6.43-21.52l-5.34,21.52H25.45L13.77,90.96H3.23V75.84H26.5l6.96,21.94
		l6.05-21.94H54.7l7.07,21.94l4.71-21.94h16.35"/>
	<path class="st0" d="M82.82,75.84h31.5l16.98,50.77h-19.2l-3.2-9.14H93.83l-3.2,9.14H72.42l11.71-35.65h-6.47 M71.71,75.84h11.11
		 M101.77,87.09l-7.28,20.11h13.99L101.77,87.09z"/>
	<path class="st0" d="M168.13,90.96 M169.46,90.96h-13.9v35.65h-16.52V90.96h-16.1V75.84h48.73v8.29"/>
	<path class="st0" d="M171.55,85.14c0.97-1.18,2.11-2.17,3.32-3.13c2.64-2.07,5.3-3.74,8-4.99c2.69-1.25,6.67-2.02,11.92-2.3
		c5.44,0.28,9.58,0.94,12.45,1.97 M208.32,90.73l-2.42,2.69c-1.69-1.41-3.19-2.41-4.5-3.02c-1.31-0.61-3.47-1.01-6.47-1.2
		c-2.91,0.38-5.08,0.97-6.5,1.79c-1.43,0.82-2.66,1.93-3.69,3.34c-1.03,1.41-1.64,3.52-1.83,6.33c0.19,2.81,0.8,4.92,1.83,6.33
		c1.03,1.41,2.26,2.52,3.69,3.34c1.43,0.82,3.6,1.42,6.5,1.79c3-0.19,5.16-0.59,6.47-1.2c1.31-0.61,2.81-1.62,4.5-3.02l9.98,11.11
		c-2.91,2.72-5.79,4.59-8.65,5.63c-2.86,1.03-7.01,1.69-12.45,1.97c-5.25-0.28-9.22-1.05-11.92-2.3c-2.7-1.25-5.36-2.92-8-4.99
		s-4.7-4.68-6.19-7.8c-1.49-3.13-2.23-6.76-2.23-10.88c0-3.53,0.56-6.71,1.67-9.53 M207.24,76.69"/>
	<path class="st0" d="M206.07,76.69l1.52-0.84h27.07v17.51h13.29V75.84h16.52v50.77h-16.52v-18.28h-13.29v18.28h-16.52V90.96h-10.9"
		/>
</g>
</svg>
